<svg xmlns="http://www.w3.org/2000/svg" width="123.7" height="131.974" viewBox="0 0 123.7 131.974">
  <path id="Body" d="M-4962.15-1657.083h0l-26.143-26.14-35.708-9.569,12.821-47.848c.1-.41.184-.72.25-.969a50.163,50.163,0,0,1,5.076-12.221,50.122,50.122,0,0,1,7.844-10.241c.275-.279.547-.547.831-.82l24.168-24.167,10.86,11.057,10.859-11.057,24.177,24.176c.224.215.432.422.606.595a50.262,50.262,0,0,1,8.018,10.385l.015.027.007.013.005.006a50.276,50.276,0,0,1,5.093,12.263l0,.011,0,.015v.008c.069.252.14.527.237.918l12.822,47.849-35.708,9.569-26.141,26.14Zm0-113.917a42.548,42.548,0,0,0-42.5,42.5,42.549,42.549,0,0,0,42.5,42.5,42.549,42.549,0,0,0,42.5-42.5A42.548,42.548,0,0,0-4962.15-1771Z" transform="translate(5024 1789.057)" fill="#ef476f"/>
</svg>
